<svg xmlns="http://www.w3.org/2000/svg" xmlns:xlink="http://www.w3.org/1999/xlink" width="500" zoomAndPan="magnify" viewBox="0 0 375 374.999991" height="500" preserveAspectRatio="xMidYMid meet" version="1.0"><defs><g/></defs><g fill="#ffffff" fill-opacity="1"><g transform="translate(23.311517, 276.001764)"><g><path d="M -3.4375 -25.328125 C -6.769531 -21.992188 -10.628906 -21.054688 -15.015625 -22.515625 C -18.347656 -23.554688 -20.535156 -25.535156 -21.578125 -28.453125 C -22.617188 -31.378906 -22.722656 -35.550781 -21.890625 -40.96875 C -20.222656 -50.144531 -17.351562 -61.09375 -13.28125 -73.8125 C -9.21875 -86.53125 -4.21875 -100.289062 1.71875 -115.09375 C 7.664062 -129.894531 14.285156 -144.703125 21.578125 -159.515625 C 23.867188 -164.097656 26.160156 -168.734375 28.453125 -173.421875 C 30.753906 -178.117188 32.320312 -181.507812 33.15625 -183.59375 C 35.03125 -188.175781 36.90625 -191.300781 38.78125 -192.96875 C 40.65625 -194.644531 43.050781 -195.484375 45.96875 -195.484375 C 54.3125 -195.484375 58.484375 -190.375 58.484375 -180.15625 C 58.484375 -178.695312 58.328125 -176.085938 58.015625 -172.328125 C 57.703125 -168.578125 57.335938 -164.929688 56.921875 -161.390625 C 55.878906 -154.503906 54.941406 -147.253906 54.109375 -139.640625 C 53.273438 -132.035156 52.597656 -124.84375 52.078125 -118.0625 C 51.554688 -111.289062 51.242188 -105.765625 51.140625 -101.484375 C 51.035156 -97.210938 51.191406 -95.078125 51.609375 -95.078125 C 52.023438 -95.078125 53.222656 -96.535156 55.203125 -99.453125 C 57.179688 -102.378906 59.523438 -106.132812 62.234375 -110.71875 C 64.953125 -115.300781 67.664062 -120.097656 70.375 -125.109375 C 71.832031 -127.816406 73.8125 -131.566406 76.3125 -136.359375 C 78.8125 -141.160156 81.519531 -146.476562 84.4375 -152.3125 C 87.363281 -158.15625 90.078125 -163.785156 92.578125 -169.203125 C 103.003906 -190.472656 111.082031 -206.84375 116.8125 -218.3125 C 122.550781 -229.78125 126.773438 -237.910156 129.484375 -242.703125 C 132.191406 -247.503906 133.960938 -250.21875 134.796875 -250.84375 C 140.015625 -254.800781 145.488281 -255.632812 151.21875 -253.34375 C 156.957031 -251.050781 160.554688 -246.566406 162.015625 -239.890625 C 162.640625 -236.972656 162.640625 -233.320312 162.015625 -228.9375 C 161.804688 -227.0625 161.179688 -223.832031 160.140625 -219.25 C 159.097656 -214.664062 157.894531 -209.609375 156.53125 -204.078125 C 155.175781 -198.554688 153.820312 -193.289062 152.46875 -188.28125 C 151.113281 -183.28125 150.019531 -179.425781 149.1875 -176.71875 C 145.851562 -166.289062 142.203125 -153.460938 138.234375 -138.234375 C 134.273438 -123.015625 130.265625 -106.644531 126.203125 -89.125 C 122.140625 -71.613281 118.332031 -54.207031 114.78125 -36.90625 C 112.695312 -26.269531 111.03125 -17.925781 109.78125 -11.875 C 108.53125 -5.832031 107.488281 -0.882812 106.65625 2.96875 C 105.820312 6.820312 104.882812 10.835938 103.84375 15.015625 C 103.007812 18.765625 102.117188 22.828125 101.171875 27.203125 C 100.234375 31.585938 99.453125 34.925781 98.828125 37.21875 C 97.367188 44.519531 95.804688 50.046875 94.140625 53.796875 C 92.472656 57.546875 90.597656 60.148438 88.515625 61.609375 C 85.390625 63.703125 82.257812 64.328125 79.125 63.484375 C 76 62.441406 73.601562 60.359375 71.9375 57.234375 C 71.101562 55.566406 70.632812 53.113281 70.53125 49.875 C 70.425781 46.644531 70.6875 44.195312 71.3125 42.53125 C 71.9375 41.070312 72.71875 36.898438 73.65625 30.015625 C 74.59375 23.140625 75.789062 11.78125 77.25 -4.0625 C 77.875 -10.113281 78.550781 -15.898438 79.28125 -21.421875 C 80.007812 -26.953125 80.476562 -30.65625 80.6875 -32.53125 C 80.894531 -34.195312 81.207031 -36.957031 81.625 -40.8125 C 82.039062 -44.675781 82.460938 -48.273438 82.890625 -51.609375 C 83.304688 -55.148438 83.984375 -59.941406 84.921875 -65.984375 C 85.859375 -72.035156 86.742188 -77.457031 87.578125 -82.25 C 88.410156 -87.050781 89.085938 -91.222656 89.609375 -94.765625 C 90.128906 -98.304688 90.285156 -100.179688 90.078125 -100.390625 C 90.078125 -100.390625 89.609375 -99.554688 88.671875 -97.890625 C 87.734375 -96.222656 86.535156 -94.140625 85.078125 -91.640625 C 79.859375 -82.046875 74.429688 -73.859375 68.796875 -67.078125 C 63.171875 -60.304688 58.066406 -55.878906 53.484375 -53.796875 C 47.015625 -51.085938 40.96875 -51.085938 35.34375 -53.796875 C 27.207031 -57.753906 22.304688 -66.507812 20.640625 -80.0625 C 20.429688 -81.726562 20.222656 -83.132812 20.015625 -84.28125 C 19.804688 -85.4375 19.597656 -86.015625 19.390625 -86.015625 C 19.179688 -86.015625 18.453125 -84.65625 17.203125 -81.9375 C 14.910156 -75.476562 12.613281 -68.910156 10.3125 -62.234375 C 8.019531 -55.566406 5.9375 -49 4.0625 -42.53125 C 2.1875 -36.695312 0.726562 -32.628906 -0.3125 -30.328125 C -1.351562 -28.035156 -2.394531 -26.367188 -3.4375 -25.328125 Z M -3.4375 -25.328125 "/></g></g></g><g fill="#ffffff" fill-opacity="1"><g transform="translate(158.72923, 276.001764)"><g><path d="M 65.6875 -182.65625 C 65.0625 -182.445312 64.378906 -181.351562 63.640625 -179.375 C 62.910156 -177.394531 61.816406 -173.535156 60.359375 -167.796875 C 58.898438 -162.066406 56.710938 -153.257812 53.796875 -141.375 C 51.085938 -130.320312 48.738281 -120.675781 46.75 -112.4375 C 44.769531 -104.195312 43.78125 -99.867188 43.78125 -99.453125 C 43.988281 -98.617188 45.863281 -99.140625 49.40625 -101.015625 C 52.957031 -102.898438 59.945312 -106.863281 70.375 -112.90625 C 75.164062 -115.820312 80.476562 -119.050781 86.3125 -122.59375 C 92.15625 -126.144531 97.890625 -129.640625 103.515625 -133.078125 C 109.148438 -136.523438 113.945312 -139.5 117.90625 -142 C 128.75 -149.082031 138.8125 -156.0625 148.09375 -162.9375 C 157.375 -169.820312 164.671875 -175.609375 169.984375 -180.296875 C 175.304688 -184.992188 177.550781 -187.757812 176.71875 -188.59375 C 176.300781 -189.21875 173.898438 -189.6875 169.515625 -190 C 165.140625 -190.3125 159.71875 -190.570312 153.25 -190.78125 C 146.789062 -190.988281 140.015625 -190.988281 132.921875 -190.78125 C 126.046875 -190.78125 120.363281 -190.625 115.875 -190.3125 C 111.394531 -190 107.117188 -189.632812 103.046875 -189.21875 C 98.984375 -188.800781 94.035156 -188.070312 88.203125 -187.03125 C 82.566406 -186.195312 77.5625 -185.363281 73.1875 -184.53125 C 68.8125 -183.695312 66.3125 -183.070312 65.6875 -182.65625 Z M 28.78125 -24.390625 C 27.9375 -23.765625 27.097656 -22.253906 26.265625 -19.859375 C 25.429688 -17.460938 24.078125 -12.40625 22.203125 -4.6875 C 20.742188 1.769531 19.234375 6.25 17.671875 8.75 C 16.109375 11.257812 14.078125 12.515625 11.578125 12.515625 C 9.898438 12.515625 8.226562 11.890625 6.5625 10.640625 C 4.6875 8.960938 3.4375 7.03125 2.8125 4.84375 C 2.1875 2.65625 1.664062 -1.039062 1.25 -6.25 C 1.039062 -12.09375 0.625 -15.328125 0 -15.953125 C -0.625 -16.578125 -2.8125 -16.160156 -6.5625 -14.703125 C -11.15625 -13.242188 -15.796875 -12.878906 -20.484375 -13.609375 C -25.171875 -14.335938 -28.976562 -16.054688 -31.90625 -18.765625 C -34.820312 -21.679688 -36.75 -25.535156 -37.6875 -30.328125 C -38.625 -35.128906 -38.363281 -39.613281 -36.90625 -43.78125 C -36.070312 -46.082031 -35.03125 -48.015625 -33.78125 -49.578125 C -32.53125 -51.140625 -29.765625 -53.328125 -25.484375 -56.140625 C -21.210938 -58.953125 -14.175781 -63.488281 -4.375 -69.75 L 7.8125 -77.5625 L 12.828125 -96.640625 C 14.492188 -103.523438 16.472656 -111.1875 18.765625 -119.625 C 21.054688 -128.070312 23.398438 -136.253906 25.796875 -144.171875 C 28.203125 -152.097656 30.34375 -158.671875 32.21875 -163.890625 C 33.257812 -166.804688 34.09375 -169.253906 34.71875 -171.234375 C 35.34375 -173.210938 35.65625 -174.304688 35.65625 -174.515625 C 35.445312 -174.734375 33.460938 -174.160156 29.703125 -172.796875 C 25.953125 -171.441406 21.785156 -169.878906 17.203125 -168.109375 C 12.617188 -166.335938 8.863281 -164.828125 5.9375 -163.578125 L 0 -161.078125 L 4.0625 -157.015625 C 6.976562 -154.503906 8.019531 -152.832031 7.1875 -152 C 6.769531 -151.582031 5.363281 -151.476562 2.96875 -151.6875 C 0.570312 -151.894531 -2.03125 -152.363281 -4.84375 -153.09375 C -7.65625 -153.820312 -10.003906 -154.707031 -11.890625 -155.75 C -16.054688 -158.050781 -18.347656 -161.335938 -18.765625 -165.609375 C -19.179688 -169.878906 -17.722656 -174 -14.390625 -177.96875 C -12.097656 -180.46875 -7.71875 -183.644531 -1.25 -187.5 C 5.207031 -191.363281 12.503906 -195.117188 20.640625 -198.765625 C 28.773438 -202.410156 36.070312 -205.171875 42.53125 -207.046875 C 45.457031 -208.085938 47.390625 -209.023438 48.328125 -209.859375 C 49.265625 -210.691406 50.773438 -212.882812 52.859375 -216.4375 C 58.273438 -226.445312 63.59375 -229.050781 68.8125 -224.25 C 69.851562 -223.414062 70.582031 -221.539062 71 -218.625 C 71 -216.539062 71.15625 -215.394531 71.46875 -215.1875 C 71.78125 -214.976562 72.664062 -214.976562 74.125 -215.1875 C 83.925781 -217.269531 95.082031 -218.78125 107.59375 -219.71875 C 120.101562 -220.65625 132.40625 -220.914062 144.5 -220.5 C 161.382812 -220.082031 173.789062 -218.9375 181.71875 -217.0625 C 189.644531 -215.1875 195.898438 -212.160156 200.484375 -207.984375 C 206.523438 -202.148438 209.128906 -195.375 208.296875 -187.65625 C 207.460938 -179.945312 203.398438 -171.921875 196.109375 -163.578125 C 190.472656 -157.316406 183.796875 -150.847656 176.078125 -144.171875 C 168.367188 -137.503906 158.675781 -130.050781 147 -121.8125 C 135.320312 -113.582031 120.726562 -103.734375 103.21875 -92.265625 C 101.125 -90.804688 99.609375 -89.660156 98.671875 -88.828125 C 97.734375 -87.992188 97.578125 -87.578125 98.203125 -87.578125 C 98.617188 -87.367188 100.179688 -87.421875 102.890625 -87.734375 C 105.609375 -88.046875 108.632812 -88.410156 111.96875 -88.828125 C 118.851562 -89.867188 126.253906 -90.804688 134.171875 -91.640625 C 142.097656 -92.472656 149.34375 -93.148438 155.90625 -93.671875 C 162.476562 -94.191406 166.910156 -94.453125 169.203125 -94.453125 C 179.421875 -94.453125 186.71875 -91.328125 191.09375 -85.078125 C 193.1875 -82.359375 194.335938 -78.863281 194.546875 -74.59375 C 194.753906 -70.320312 193.914062 -66.722656 192.03125 -63.796875 C 190.78125 -61.710938 188.957031 -59.941406 186.5625 -58.484375 C 184.164062 -57.023438 180.253906 -55.722656 174.828125 -54.578125 C 169.410156 -53.429688 161.382812 -52.023438 150.75 -50.359375 C 145.539062 -49.523438 139.179688 -48.425781 131.671875 -47.0625 C 124.171875 -45.707031 117.8125 -44.507812 112.59375 -43.46875 C 108.007812 -42.632812 102.273438 -41.488281 95.390625 -40.03125 C 88.515625 -38.570312 81.320312 -37.007812 73.8125 -35.34375 C 66.300781 -33.675781 59.207031 -32.0625 52.53125 -30.5 C 45.863281 -28.9375 40.34375 -27.628906 35.96875 -26.578125 C 31.59375 -25.535156 29.195312 -24.804688 28.78125 -24.390625 Z M 28.78125 -24.390625 "/></g></g></g></svg>